# Blender v2.81 (sub 16) OBJ File: 'boat.blend'
# www.blender.org
mtllib boat.mtl
o Cube.001_Cube.002
v 1.000000 -0.734138 -0.201656
v 1.000000 -0.729581 0.201504
v -1.228817 -0.734138 -0.202415
v -1.228817 -0.734138 0.202137
v -1.228817 -0.734138 0.000000
v 1.000977 -0.734138 -0.000281
v 1.004284 0.182165 -1.008057
v 1.000000 -1.000000 -0.201656
v 1.000000 0.182165 1.000000
v 1.000000 -0.995442 0.201504
v -1.445305 0.182165 -1.000000
v -1.445305 -1.000000 -0.202415
v -1.445305 0.182165 1.000000
v -1.445305 -1.000000 0.202137
v -1.445305 -1.000000 0.000000
v 2.256863 0.189296 -0.001203
v -1.445742 0.182602 -0.000000
v 1.205726 -1.000000 0.000000
v 1.000000 0.183061 -0.821062
v -1.228817 0.182244 -0.820681
v -1.228817 0.182994 0.000000
v -1.228817 0.182243 0.820618
v -1.228817 0.182995 -0.000071
v 1.000000 0.183037 0.820320
v 1.975578 0.188787 -0.000996
v 1.975578 0.188788 -0.001112
vt 0.375000 0.750000
vt 0.568793 1.000000
vt 0.568744 0.750000
vt 0.375000 0.250000
vt 0.568793 0.250000
vt 0.568952 0.125013
vt 0.125000 0.625000
vt 0.375000 0.625000
vt 0.569007 0.625000
vt 0.375000 0.500000
vt 0.569015 0.624989
vt 0.125000 0.500000
vt 0.375000 0.000000
vt 0.568952 0.125000
vt 0.568793 0.000000
vt 0.855112 0.727580
vt 0.875000 0.750000
vt 0.625000 0.750000
vt 0.375000 0.750000
vt 0.625000 1.000000
vt 0.375000 1.000000
vt 0.625000 0.125000
vt 0.375000 0.250000
vt 0.375000 0.125000
vt 0.125000 0.625000
vt 0.125000 0.750000
vt 0.375000 0.625000
vt 0.625000 0.250000
vt 0.375000 0.500000
vt 0.625000 0.500000
vt 0.125000 0.500000
vt 0.375000 0.000000
vt 0.643111 0.523183
vt 0.643992 0.625000
vt 0.375000 1.000000
vt 0.375000 0.125000
vt 0.125000 0.750000
vt 0.568966 0.500000
vt 0.625000 0.625000
vt 0.643983 0.625014
vt 0.642252 0.727560
vt 0.860353 0.625000
vt 0.875000 0.625000
vt 0.860352 0.625009
vt 0.625000 0.000000
vt 0.875000 0.500000
vt 0.855149 0.522480
vn -0.0003 0.5612 -0.8277
vn 1.0000 0.0000 -0.0000
vn -0.0000 0.9997 -0.0226
vn -0.6875 0.7259 -0.0197
vn -0.0003 0.5593 0.8290
vn -0.6876 0.7261 0.0017
vn 0.0000 1.0000 0.0000
vn 0.0000 1.0000 0.0004
vn 0.0013 -0.5594 0.8289
vn -1.0000 -0.0004 0.0000
vn 0.0019 -1.0000 0.0000
vn 0.6239 -0.4386 0.6469
vn 0.0003 -0.5593 -0.8290
vn 0.6287 -0.4398 -0.6414
vn 0.0000 -1.0000 0.0000
vn -0.0018 1.0000 -0.0048
vn -0.0014 0.5594 -0.8289
vn 1.0000 0.0000 0.0017
vn -0.0020 1.0000 0.0000
vn -0.5735 0.4597 -0.6780
vn -0.0001 0.5597 0.8287
vn -0.5734 0.4585 0.6790
vn -0.6876 0.7261 0.0033
vn -0.0018 1.0000 0.0046
vn -0.0018 1.0000 0.0049
vn -0.0018 1.0000 0.0044
vn -0.0018 1.0000 0.0009
vn -0.0004 1.0000 0.0049
vn 0.0000 -0.5612 0.8277
vn -1.0000 -0.0003 -0.0004
vn 0.0000 -0.9997 0.0226
vn 0.5473 -0.4830 0.6836
vn -0.0027 -0.5635 -0.8261
vn 0.5492 -0.4861 -0.6798
vn -1.0000 -0.0003 0.0004
vn -0.0000 1.0000 -0.0004
vn -0.0018 1.0000 -0.0009
vn -0.0004 1.0000 -0.0048
usemtl Material.002
s off
f 2/1/1 22/2/1 24/3/1
f 3/4/2 20/5/2 23/6/2
f 5/7/3 2/1/3 6/8/3
f 2/1/4 25/9/4 6/8/4
f 1/10/5 20/5/5 3/4/5
f 6/8/6 25/9/6 26/11/6
f 5/7/7 1/10/7 3/12/7
f 4/13/2 21/14/2 22/15/2
f 22/16/8 13/17/8 9/18/8
f 10/19/9 13/20/9 14/21/9
f 17/22/10 12/23/10 15/24/10
f 15/25/11 10/19/11 14/26/11
f 18/27/12 9/18/12 10/19/12
f 11/28/13 8/29/13 12/23/13
f 7/30/14 18/27/14 8/29/14
f 8/29/15 15/25/15 12/31/15
f 14/32/10 17/22/10 15/24/10
f 19/33/16 26/34/16 7/30/16
f 2/1/17 4/35/17 22/2/17
f 21/14/18 5/36/18 23/6/18
f 5/36/2 3/4/2 23/6/2
f 5/7/19 4/37/19 2/1/19
f 2/1/20 24/3/20 25/9/20
f 1/10/21 19/38/21 20/5/21
f 19/38/22 1/10/22 26/11/22
f 1/10/23 6/8/23 26/11/23
f 5/7/7 6/8/7 1/10/7
f 4/13/2 5/36/2 21/14/2
f 16/39/24 26/34/24 25/40/24
f 16/39/25 25/40/25 9/18/25
f 25/40/25 24/41/25 9/18/25
f 23/42/26 17/43/26 21/44/26
f 17/43/8 13/17/8 22/16/8
f 21/44/27 17/43/27 22/16/27
f 9/18/28 24/41/28 22/16/28
f 10/19/29 9/18/29 13/20/29
f 17/22/30 11/28/30 12/23/30
f 15/25/31 18/27/31 10/19/31
f 18/27/32 16/39/32 9/18/32
f 11/28/33 7/30/33 8/29/33
f 7/30/34 16/39/34 18/27/34
f 8/29/15 18/27/15 15/25/15
f 14/32/35 13/45/35 17/22/35
f 11/46/36 17/43/36 20/47/36
f 17/43/37 23/42/37 20/47/37
f 26/34/16 16/39/16 7/30/16
f 11/46/36 20/47/36 7/30/36
f 20/47/38 19/33/38 7/30/38
